<svg xmlns="http://www.w3.org/2000/svg" width="14.651" height="14.584" viewBox="0 0 14.651 14.584">
  <g id="layer_copy" transform="translate(0.2 0.206)">
    <path id="Path_92320" data-name="Path 92320"
      d="M84.462,81.535a3.022,3.022,0,0,0-1.928-1,4.3,4.3,0,0,0-2.97.3c-.21.157-.314.482-.338,1.053,0,.075,0,.149-.005.218a9.2,9.2,0,0,1-2.933-1.83l-.374-.372a9.127,9.127,0,0,1-1.839-2.91c.07,0,.144,0,.22,0,.574-.024.9-.128,1.058-.336a4.22,4.22,0,0,0,.3-2.94,3.006,3.006,0,0,0-1.01-1.931,3.326,3.326,0,0,0-1.974-.228A3.045,3.045,0,0,0,70.9,72.3a3.477,3.477,0,0,0-.4,1.556c0,.01,0,.019,0,.029a11.985,11.985,0,0,0,3.221,7.99l.008.01.569.568s.006.01.009.013a12.3,12.3,0,0,0,8.037,3.21h0c.008,0,.016-.01.024-.01a3.542,3.542,0,0,0,1.564-.4,3.011,3.011,0,0,0,.757-1.762A3.273,3.273,0,0,0,84.462,81.535Zm-.378,1.875a2.557,2.557,0,0,1-.553,1.388,3.6,3.6,0,0,1-1.193.244,11.522,11.522,0,0,1-7.612-3.034l-.561-.557a11.37,11.37,0,0,1-3.052-7.562,3.539,3.539,0,0,1,.244-1.183,2.593,2.593,0,0,1,1.4-.55,2.645,2.645,0,0,1,1.569.147,2.422,2.422,0,0,1,.723,1.521,3.777,3.777,0,0,1-.18,2.444,2.972,2.972,0,0,1-1.165.1.311.311,0,0,0-.344.459,9.722,9.722,0,0,0,1.988,3.366.308.308,0,0,0,.037.048q.137.145.279.285t.288.278a.31.31,0,0,0,.048.036,9.81,9.81,0,0,0,3.386,1.975.307.307,0,0,0,.371-.046l.015-.015,0,0a.3.3,0,0,0,.069-.279,2.92,2.92,0,0,1,.1-1.155,3.856,3.856,0,0,1,2.476-.177,2.439,2.439,0,0,1,1.519.717A2.6,2.6,0,0,1,84.084,83.41Z"
      transform="translate(-70.499 -71.497)" fill="#fff" stroke="#fff" stroke-width="0.4" />
  </g>
</svg>