<svg xmlns="http://www.w3.org/2000/svg" width="15.096" height="15.097" viewBox="0 0 15.096 15.097">
  <g id="_1737369_answer_circle_okay_tick_icon" data-name="1737369_answer_circle_okay_tick_icon"
    transform="translate(-60.341 -60.338)">
    <path id="Path_92321" data-name="Path 92321"
      d="M67.889,60.338a7.548,7.548,0,1,0,7.548,7.548A7.557,7.557,0,0,0,67.889,60.338Zm0,13.906a6.358,6.358,0,1,1,6.358-6.358A6.365,6.365,0,0,1,67.889,74.244Z"
      transform="translate(0 0)" fill="#01a59a" />
    <path id="Path_92322" data-name="Path 92322"
      d="M141.463,169.286l-4.837,4.928-2.4-1.735a.68.68,0,1,0-.8,1.1l2.871,2.079a.681.681,0,0,0,.884-.074l5.247-5.346a.68.68,0,0,0-.971-.953Z"
      transform="translate(-70 -104.549)" fill="#01a59a" />
  </g>
</svg>