<svg xmlns="http://www.w3.org/2000/svg" width="71.828" height="14.583" viewBox="0 0 71.828 14.583"><g transform="translate(-225 -2129)"><path d="M-51.644.183a3.152,3.152,0,0,1-1.433-.341,4.641,4.641,0,0,1-1.263-.95l.895-1.26a4.451,4.451,0,0,0,1.035.737,2.121,2.121,0,0,0,.919.231q.1,0,.231-.009T-51-1.44q.134-.021.259-.052a1.957,1.957,0,0,0,.222-.067l.228-.091q.119-.049.225-.1t.192-.1a1.2,1.2,0,0,0,.14-.091l-1.942-4.687,1.443-.6q.213.53.505,1.23.25.6.606,1.467t.825,1.978l.1.237q.079.207.164.38a1.043,1.043,0,0,0,.216.3.9.9,0,0,0,.335.195,1.629,1.629,0,0,0,.52.07.762.762,0,0,1,.3.061.809.809,0,0,1,.25.164.787.787,0,0,1,.17.247.745.745,0,0,1,.064.307.745.745,0,0,1-.064.307.787.787,0,0,1-.17.247.809.809,0,0,1-.25.164.762.762,0,0,1-.3.061,3.705,3.705,0,0,1-.688-.058A2.741,2.741,0,0,1-48.2-.033a2.036,2.036,0,0,1-.426-.237,2.34,2.34,0,0,1-.332-.3,2.974,2.974,0,0,1-.45.247q-.274.125-.536.228a3.638,3.638,0,0,1-.785.207A6.006,6.006,0,0,1-51.644.183Zm11.28-1.558a.73.73,0,0,1,.3.064.826.826,0,0,1,.25.17.825.825,0,0,1,.17.25.745.745,0,0,1,.064.307.724.724,0,0,1-.064.3.8.8,0,0,1-.17.243.809.809,0,0,1-.25.164.762.762,0,0,1-.3.061q-.481,0-.943-.033A6.377,6.377,0,0,1-42.193.03a4.162,4.162,0,0,1-.8-.256,2.914,2.914,0,0,1-.685-.42,3.4,3.4,0,0,1-.782.393,6.459,6.459,0,0,1-.94.259,9.1,9.1,0,0,1-1,.14q-.5.043-.94.043a.762.762,0,0,1-.3-.061.809.809,0,0,1-.25-.164.8.8,0,0,1-.17-.243.724.724,0,0,1-.064-.3.745.745,0,0,1,.064-.307.825.825,0,0,1,.17-.25.825.825,0,0,1,.25-.17.73.73,0,0,1,.3-.064q.262,0,.551-.018t.575-.052q.286-.033.56-.085a5.042,5.042,0,0,0,.5-.119q-.237-.237-.45-.453t-.429-.432q-.216-.216-.45-.444t-.508-.484L-46.9-4.73a4.425,4.425,0,0,1,.706-.511,5.007,5.007,0,0,1,.709-.341,4.377,4.377,0,0,1,.673-.2,5.281,5.281,0,0,1,.59-.091,5.5,5.5,0,0,1,.612-.027,5.73,5.73,0,0,1,.621.04,4.468,4.468,0,0,1,.6.113,3.414,3.414,0,0,1,.548.192,2.245,2.245,0,0,1,.563.338,1.89,1.89,0,0,1,.341.371,1.262,1.262,0,0,1,.173.359,1.383,1.383,0,0,1,.055.3,1.627,1.627,0,0,1-.085.63,3.555,3.555,0,0,1-.313.7,5.017,5.017,0,0,1-.478.685,4.867,4.867,0,0,1-.578.593,5.676,5.676,0,0,0,.846.155A8.6,8.6,0,0,0-40.364-1.376Zm-5-2.642q.213.262.45.517t.463.487q.225.231.42.423l.329.326a3.894,3.894,0,0,0,.466-.365q.259-.231.5-.487a5.49,5.49,0,0,0,.42-.5,1.64,1.64,0,0,0,.234-.4,2.364,2.364,0,0,0-.335-.146,3.673,3.673,0,0,0-.4-.116,3.737,3.737,0,0,0-.426-.073,3.726,3.726,0,0,0-.417-.024,3.874,3.874,0,0,0-.414.024q-.225.024-.457.073t-.447.116A3.1,3.1,0,0,0-45.361-4.017ZM-41.574-.6A.777.777,0,0,1-41.513-.9a.747.747,0,0,1,.167-.247.819.819,0,0,1,.247-.164.755.755,0,0,1,.3-.061h.9q.256,0,.505-.021a2.257,2.257,0,0,0,.469-.088,1.294,1.294,0,0,0,.387-.189.808.808,0,0,0,.259-.317.932.932,0,0,0,.067-.4,2.191,2.191,0,0,0-.064-.444q-.064-.286-.177-.633t-.262-.718q-.149-.371-.313-.694l1.406-.694q.152.347.3.737t.271.8a7.944,7.944,0,0,1,.192.825,4.654,4.654,0,0,1,.073.81,2.62,2.62,0,0,1-.2,1.053,2.286,2.286,0,0,1-.651.88,2.808,2.808,0,0,1-1,.514A3.282,3.282,0,0,1-39.3.161q-.326.021-.606.021h-.889a.755.755,0,0,1-.3-.061.819.819,0,0,1-.247-.164.747.747,0,0,1-.167-.247A.777.777,0,0,1-41.574-.6ZM-37.8,2.289l-1.163,1.163-1.169-1.169,1.163-1.163ZM-30.171-.67a4.044,4.044,0,0,1-1.4-.216A2.2,2.2,0,0,1-32.5-1.5a1.61,1.61,0,0,1-.28-.539,1.949,1.949,0,0,1-.085-.551,2.052,2.052,0,0,1,.04-.42,1.878,1.878,0,0,1,.094-.323,3.326,3.326,0,0,1,.612-.892,5.283,5.283,0,0,1,.764-.657,5.453,5.453,0,0,1,.779-.46q.383-.183.663-.292-.03-.231-.046-.463t-.033-.463l1.54-.329q.006.055.024.24t.046.441q.027.256.058.545t.055.542q.024.253.046.438t.027.228q.091.779.167,1.272t.134.779q.058.286.094.408a1.234,1.234,0,0,0,.055.158.924.924,0,0,0,.137.222.563.563,0,0,0,.183.14.859.859,0,0,0,.25.073,2.229,2.229,0,0,0,.326.021.762.762,0,0,1,.3.061.809.809,0,0,1,.25.164.787.787,0,0,1,.17.247.745.745,0,0,1,.064.307.724.724,0,0,1-.064.3.837.837,0,0,1-.17.247.782.782,0,0,1-.25.167.762.762,0,0,1-.3.061A4.778,4.778,0,0,1-27.435.14a2.289,2.289,0,0,1-.679-.2,2.024,2.024,0,0,1-.441-.283,2.007,2.007,0,0,1-.368-.423q-.341.049-.651.073T-30.171-.67Zm.706-1.6q-.03-.164-.061-.39t-.061-.49q-.03-.265-.064-.551t-.07-.572q-.158.067-.353.17t-.4.234q-.207.131-.4.277a2.907,2.907,0,0,0-.35.3,1.683,1.683,0,0,0-.247.313.6.6,0,0,0-.094.3.26.26,0,0,0,.134.222,1.107,1.107,0,0,0,.338.14,2.821,2.821,0,0,0,.444.073q.24.021.447.021t.39-.015Q-29.623-2.246-29.465-2.27ZM-28-.59a.762.762,0,0,1,.061-.3.782.782,0,0,1,.167-.25.826.826,0,0,1,.25-.17.745.745,0,0,1,.307-.064H-26.1a7.833,7.833,0,0,0,1.51-.149,12.309,12.309,0,0,0,1.5-.393q.737-.243,1.43-.542t1.309-.6a2.4,2.4,0,0,1-.52-.128q-.271-.1-.557-.222t-.584-.262q-.3-.137-.6-.253a4.758,4.758,0,0,0-.6-.189,2.489,2.489,0,0,0-.587-.073,1.137,1.137,0,0,0-.429.082,1.941,1.941,0,0,0-.383.207,2.234,2.234,0,0,0-.323.271q-.143.146-.243.271t-.158.21l-.058.085-1.217-.663a3.905,3.905,0,0,1,.542-.77,4.753,4.753,0,0,1,.709-.651,3.657,3.657,0,0,1,.785-.45,2.029,2.029,0,0,1,.776-.167,2.856,2.856,0,0,1,.624.07,5.534,5.534,0,0,1,.633.183q.32.113.648.262l.663.3q.353.17.773.338t.864.3A8.749,8.749,0,0,0-18.7-4.1a4.737,4.737,0,0,0,.855.082l-.262,1.485q-.231.1-.444.21t-.438.216a.91.91,0,0,0,.371.4,2.1,2.1,0,0,0,.527.219,2.9,2.9,0,0,0,.536.091q.259.018.4.018h.085a.745.745,0,0,1,.307.064.826.826,0,0,1,.25.17.782.782,0,0,1,.167.25.762.762,0,0,1,.061.3.755.755,0,0,1-.061.3.792.792,0,0,1-.167.247.742.742,0,0,1-.25.164.812.812,0,0,1-.307.058h-.085A5.432,5.432,0,0,1-18.257.076a3.929,3.929,0,0,1-.928-.31,2.833,2.833,0,0,1-.724-.5,2.339,2.339,0,0,1-.49-.673q-.615.3-1.272.59a13.777,13.777,0,0,1-1.363.508,11.874,11.874,0,0,1-1.47.359A9.007,9.007,0,0,1-26.1.189L-27.211.183a.812.812,0,0,1-.307-.058.742.742,0,0,1-.25-.164.792.792,0,0,1-.167-.247A.755.755,0,0,1-28-.59ZM-14.2-4.328a1.686,1.686,0,0,0-.362.122,1.476,1.476,0,0,0-.383.253,1.4,1.4,0,0,0-.3.4,1.234,1.234,0,0,0-.125.575.61.61,0,0,0,.1.283,1.815,1.815,0,0,0,.268.347,2.392,2.392,0,0,0,.383.32,1.461,1.461,0,0,0,.447.207h.006l.012.006a1.813,1.813,0,0,0,.356-.237,2.075,2.075,0,0,0,.307-.32,1.741,1.741,0,0,0,.216-.359.879.879,0,0,0,.082-.356,1.044,1.044,0,0,0-.1-.45,1.48,1.48,0,0,0-.253-.377,1.633,1.633,0,0,0-.326-.274A.98.98,0,0,0-14.2-4.328ZM-18.238-.6A.777.777,0,0,1-18.177-.9a.809.809,0,0,1,.164-.25.71.71,0,0,1,.247-.164.812.812,0,0,1,.307-.058l.444,0,.45,0q.219,0,.417-.009t.35-.027a1.738,1.738,0,0,1-.271-.231,1.959,1.959,0,0,1-.268-.35,2.317,2.317,0,0,1-.213-.463,1.868,1.868,0,0,1-.094-.569,2.625,2.625,0,0,1,.164-1.053,3.561,3.561,0,0,1,.53-.9,2.7,2.7,0,0,1,.816-.691,1.826,1.826,0,0,1,.95-.228,2.018,2.018,0,0,1,.916.253,2.574,2.574,0,0,1,.733.606,2.872,2.872,0,0,1,.487.843,2.732,2.732,0,0,1,.177.965,2.49,2.49,0,0,1-.173.913,3.789,3.789,0,0,1-.447.828q.164.024.356.043t.39.033q.2.015.39.024t.35.009a.836.836,0,0,1,.31.058.7.7,0,0,1,.25.164.809.809,0,0,1,.164.25.777.777,0,0,1,.061.307.777.777,0,0,1-.061.307.772.772,0,0,1-.164.247.764.764,0,0,1-.25.164.8.8,0,0,1-.31.061h-.055q-.195,0-.42-.006t-.453-.021q-.228-.015-.444-.033t-.393-.049q-.353-.055-.7-.134a2.88,2.88,0,0,1-.712-.274,1.673,1.673,0,0,1-.545.231,6.876,6.876,0,0,1-.81.161q-.447.064-.94.094t-.931.03h-.049a.777.777,0,0,1-.307-.061.772.772,0,0,1-.247-.164.772.772,0,0,1-.164-.247A.777.777,0,0,1-18.238-.6Zm5.15-7.651-1.163,1.163-1.169-1.169,1.163-1.163ZM-12.174-.6A.745.745,0,0,1-12.11-.9a.787.787,0,0,1,.17-.247.809.809,0,0,1,.25-.164.762.762,0,0,1,.3-.061,2.809,2.809,0,0,0,.563-.049,1.786,1.786,0,0,0,.4-.125,1.054,1.054,0,0,0,.259-.164,1.306,1.306,0,0,0,.158-.167,3.789,3.789,0,0,0,.347-.633,3.773,3.773,0,0,0,.25-.81q.024-.134.049-.247t.052-.225q.027-.113.061-.234t.082-.274l1.315.42Q-7.95-3.5-8-3.217a3.261,3.261,0,0,0-.052.587,1.088,1.088,0,0,0,.067.377,3.31,3.31,0,0,0,.146.341q.1-.207.259-.472t.359-.554q.2-.289.457-.593a7.788,7.788,0,0,1,.545-.59A5.207,5.207,0,0,1-5.633-4.6,5.616,5.616,0,0,1-4.988-5a5.291,5.291,0,0,1,.673-.3,3.9,3.9,0,0,1,.67-.177l-.006.006a3.515,3.515,0,0,1,.688-.073,2.877,2.877,0,0,1,1.141.222,2.861,2.861,0,0,1,.934.648H-.895a2.519,2.519,0,0,1,.566.861,2.258,2.258,0,0,1,.152.965A3.059,3.059,0,0,1-.5-1.732a2.887,2.887,0,0,1-.724.91,3.977,3.977,0,0,1-.959.557,6.871,6.871,0,0,1-1.09.344A8.326,8.326,0,0,1-4.395.256Q-4.955.3-5.448.3q-.6,0-1.083-.04A4.762,4.762,0,0,1-7.417.113a3.41,3.41,0,0,1-.77-.32,4.211,4.211,0,0,1-.737-.542,2.49,2.49,0,0,1-1,.7,4.031,4.031,0,0,1-1.406.231h-.055a.762.762,0,0,1-.3-.061.809.809,0,0,1-.25-.164.787.787,0,0,1-.17-.247A.745.745,0,0,1-12.174-.6Zm7-2.465a5.922,5.922,0,0,0-.475.426q-.225.225-.414.45T-6.4-1.75q-.146.21-.237.374.408.018.916.037t1.044-.009a9.764,9.764,0,0,0,1.062-.113,4.329,4.329,0,0,0,.962-.265A2.327,2.327,0,0,0-1.908-2.2a1.518,1.518,0,0,0,.417-.749.91.91,0,0,0-.216-.523,1.275,1.275,0,0,0-.457-.332,1.913,1.913,0,0,0-.59-.149,2.4,2.4,0,0,0-.618.018,2.5,2.5,0,0,0-.472.125,4.426,4.426,0,0,0-.475.207q-.234.119-.453.259A4.652,4.652,0,0,0-5.174-3.062Z" transform="translate(297 2139)" fill="#fff"/><path d="M168.75,97.477,167.278,96,160,103.292h0l7.278,7.292,1.472-1.477-5.8-5.815Z" transform="translate(65 2033)" fill="#fff"/></g></svg>