<svg xmlns="http://www.w3.org/2000/svg" width="71.59" height="14.645" viewBox="0 0 71.59 14.645"><g transform="translate(-239.16 -2128.938)"><path d="M-52.807-1.923a3.085,3.085,0,0,0-.31.6,4.773,4.773,0,0,0-.219.758,5.142,5.142,0,0,0-.1,1.068,1.931,1.931,0,0,0,.11.67,1.865,1.865,0,0,0,.292.527,2.081,2.081,0,0,0,.417.4,2.7,2.7,0,0,0,.484.277,2.918,2.918,0,0,0,.49.167,2.564,2.564,0,0,0,.435.07.717.717,0,0,0,.088.006h.082a3.047,3.047,0,0,0,.889-.143,2.669,2.669,0,0,0,.864-.45,2.444,2.444,0,0,0,.654-.791A2.456,2.456,0,0,0-48.369.061q0-.481-.018-1.132t-.046-1.385q-.027-.733-.064-1.513T-48.57-5.49q-.085-1.735-.195-3.628l1.589-.3q.049,1.163.1,2.38.018.517.04,1.1T-47-4.76q.021.6.04,1.208t.037,1.178a1.906,1.906,0,0,0,.073.292,1.078,1.078,0,0,0,.173.326,1.06,1.06,0,0,0,.31.268.944.944,0,0,0,.484.113.745.745,0,0,1,.307.064.826.826,0,0,1,.25.17.782.782,0,0,1,.167.25.762.762,0,0,1,.061.3.755.755,0,0,1-.061.3.792.792,0,0,1-.167.247.742.742,0,0,1-.25.164.812.812,0,0,1-.307.058A3.252,3.252,0,0,1-46.446.14a2.161,2.161,0,0,1-.432-.122V.085a4.65,4.65,0,0,1-.186,1.37,3.771,3.771,0,0,1-.5,1.056,3.4,3.4,0,0,1-.733.77,4.321,4.321,0,0,1-.873.517,4.232,4.232,0,0,1-.928.289,4.887,4.887,0,0,1-.9.088h-.116a.948.948,0,0,1-.116-.006,4.827,4.827,0,0,1-.8-.137,4.307,4.307,0,0,1-.822-.3,4.066,4.066,0,0,1-.764-.484,3.108,3.108,0,0,1-.633-.688,3.461,3.461,0,0,1-.432-.91A3.7,3.7,0,0,1-54.84.5a7.57,7.57,0,0,1,.119-1.382,6.358,6.358,0,0,1,.247-.937,3.325,3.325,0,0,1,.353-.712ZM-47.023-.6a.755.755,0,0,1,.061-.3.819.819,0,0,1,.164-.247.747.747,0,0,1,.247-.167.777.777,0,0,1,.307-.061h.1a2.561,2.561,0,0,0,1.412-.32,1.074,1.074,0,0,0,.481-.959,1.985,1.985,0,0,0-.024-.32,3.114,3.114,0,0,0-.07-.317q-.046-.167-.11-.368t-.137-.469l1.5-.42q.11.432.2.9a5.034,5.034,0,0,1,.094.989,2.941,2.941,0,0,0,.033.432,1.369,1.369,0,0,0,.128.414.87.87,0,0,0,.256.31.674.674,0,0,0,.417.122.762.762,0,0,1,.3.061.782.782,0,0,1,.25.167.837.837,0,0,1,.17.247.724.724,0,0,1,.064.3.745.745,0,0,1-.064.307.787.787,0,0,1-.17.247.819.819,0,0,1-.247.164.74.74,0,0,1-.3.061,2.424,2.424,0,0,1-1-.186,2.1,2.1,0,0,1-.691-.49,3.874,3.874,0,0,1-2.5.676h-.1a.777.777,0,0,1-.307-.061A.772.772,0,0,1-46.8-.043a.772.772,0,0,1-.164-.247A.777.777,0,0,1-47.023-.6Zm4.31,2.794L-43.876,3.36l-1.169-1.169,1.163-1.163ZM-43.035-.6A.777.777,0,0,1-42.974-.9a.726.726,0,0,1,.17-.247.848.848,0,0,1,.253-.164.777.777,0,0,1,.307-.061q.584,0,1.166-.049t1.083-.128q.5-.079.886-.18a2.651,2.651,0,0,0,.572-.2h-.621a3.945,3.945,0,0,1-.679-.058,3.313,3.313,0,0,1-.624-.17A2.577,2.577,0,0,1-41-2.444a1.84,1.84,0,0,1-.414-.387,2.2,2.2,0,0,1-.283-.511,2.062,2.062,0,0,1-.131-.785,3.158,3.158,0,0,1,.037-.481,4.123,4.123,0,0,1,.259-.9,3.017,3.017,0,0,1,.429-.727v.006a2.141,2.141,0,0,1,.679-.6,1.644,1.644,0,0,1,.788-.2,1.824,1.824,0,0,1,.837.213,2.922,2.922,0,0,1,.758.56,3.744,3.744,0,0,1,.45.648,4.937,4.937,0,0,1,.344.773,5.563,5.563,0,0,1,.222.855,5.06,5.06,0,0,1,.079.889q0,.128-.006.262t-.018.256a2.741,2.741,0,0,1-.307,1.026,2.523,2.523,0,0,1-.612.74,3.193,3.193,0,0,1-.855.5,5.942,5.942,0,0,1-1.038.3,8.994,8.994,0,0,1-1.157.149q-.6.04-1.217.046h-.1a.755.755,0,0,1-.3-.061.792.792,0,0,1-.247-.167.792.792,0,0,1-.167-.247A.755.755,0,0,1-43.035-.6Zm3.4-4.863a.462.462,0,0,0-.243.067,1.119,1.119,0,0,0-.262.2,1.9,1.9,0,0,0-.237.3,1.459,1.459,0,0,0-.167.356,1.2,1.2,0,0,0-.055.377.709.709,0,0,0,.1.356.312.312,0,0,0,.161.119,1.951,1.951,0,0,0,.289.091q.164.04.341.064t.323.03q.243.012.514.006t.46-.018q-.055-.219-.152-.545a4.022,4.022,0,0,0-.25-.633,2.323,2.323,0,0,0-.356-.533A.682.682,0,0,0-39.632-5.46Zm-.231-3.555L-40.9-7.98l-1.047-1.041,1.035-1.041Zm2.3.006L-38.6-7.968l-1.047-1.047,1.035-1.035ZM-30.171-.67a4.044,4.044,0,0,1-1.4-.216A2.2,2.2,0,0,1-32.5-1.5a1.61,1.61,0,0,1-.28-.539,1.949,1.949,0,0,1-.085-.551,2.052,2.052,0,0,1,.04-.42,1.878,1.878,0,0,1,.094-.323,3.326,3.326,0,0,1,.612-.892,5.283,5.283,0,0,1,.764-.657,5.453,5.453,0,0,1,.779-.46q.383-.183.663-.292-.03-.231-.046-.463t-.033-.463l1.54-.329q.006.055.024.24t.046.441q.027.256.058.545t.055.542q.024.253.046.438t.027.228q.091.779.167,1.272t.134.779q.058.286.094.408a1.234,1.234,0,0,0,.055.158.924.924,0,0,0,.137.222.563.563,0,0,0,.183.14.859.859,0,0,0,.25.073,2.229,2.229,0,0,0,.326.021.762.762,0,0,1,.3.061.809.809,0,0,1,.25.164.787.787,0,0,1,.17.247.745.745,0,0,1,.064.307.724.724,0,0,1-.064.3.837.837,0,0,1-.17.247.782.782,0,0,1-.25.167.762.762,0,0,1-.3.061A4.778,4.778,0,0,1-27.435.14a2.289,2.289,0,0,1-.679-.2,2.024,2.024,0,0,1-.441-.283,2.007,2.007,0,0,1-.368-.423q-.341.049-.651.073T-30.171-.67Zm.706-1.6q-.03-.164-.061-.39t-.061-.49q-.03-.265-.064-.551t-.07-.572q-.158.067-.353.17t-.4.234q-.207.131-.4.277a2.907,2.907,0,0,0-.35.3,1.683,1.683,0,0,0-.247.313.6.6,0,0,0-.094.3.26.26,0,0,0,.134.222,1.107,1.107,0,0,0,.338.14,2.821,2.821,0,0,0,.444.073q.24.021.447.021t.39-.015Q-29.623-2.246-29.465-2.27ZM-28-.59a.762.762,0,0,1,.061-.3.782.782,0,0,1,.167-.25.826.826,0,0,1,.25-.17.745.745,0,0,1,.307-.064H-26.1a7.833,7.833,0,0,0,1.51-.149,12.309,12.309,0,0,0,1.5-.393q.737-.243,1.43-.542t1.309-.6a2.4,2.4,0,0,1-.52-.128q-.271-.1-.557-.222t-.584-.262q-.3-.137-.6-.253a4.758,4.758,0,0,0-.6-.189,2.489,2.489,0,0,0-.587-.073,1.137,1.137,0,0,0-.429.082,1.941,1.941,0,0,0-.383.207,2.234,2.234,0,0,0-.323.271q-.143.146-.243.271t-.158.21l-.058.085-1.217-.663a3.905,3.905,0,0,1,.542-.77,4.753,4.753,0,0,1,.709-.651,3.657,3.657,0,0,1,.785-.45,2.029,2.029,0,0,1,.776-.167,2.856,2.856,0,0,1,.624.07,5.534,5.534,0,0,1,.633.183q.32.113.648.262l.663.3q.353.17.773.338t.864.3A8.749,8.749,0,0,0-18.7-4.1a4.737,4.737,0,0,0,.855.082l-.262,1.485q-.231.1-.444.21t-.438.216a.91.91,0,0,0,.371.4,2.1,2.1,0,0,0,.527.219,2.9,2.9,0,0,0,.536.091q.259.018.4.018h.085a.745.745,0,0,1,.307.064.826.826,0,0,1,.25.17.782.782,0,0,1,.167.25.762.762,0,0,1,.061.3.755.755,0,0,1-.061.3.792.792,0,0,1-.167.247.742.742,0,0,1-.25.164.812.812,0,0,1-.307.058h-.085A5.432,5.432,0,0,1-18.257.076a3.929,3.929,0,0,1-.928-.31,2.833,2.833,0,0,1-.724-.5,2.339,2.339,0,0,1-.49-.673q-.615.3-1.272.59a13.777,13.777,0,0,1-1.363.508,11.874,11.874,0,0,1-1.47.359A9.007,9.007,0,0,1-26.1.189L-27.211.183a.812.812,0,0,1-.307-.058.742.742,0,0,1-.25-.164.792.792,0,0,1-.167-.247A.755.755,0,0,1-28-.59ZM-14.2-4.328a1.686,1.686,0,0,0-.362.122,1.476,1.476,0,0,0-.383.253,1.4,1.4,0,0,0-.3.4,1.234,1.234,0,0,0-.125.575.61.61,0,0,0,.1.283,1.815,1.815,0,0,0,.268.347,2.392,2.392,0,0,0,.383.32,1.461,1.461,0,0,0,.447.207h.006l.012.006a1.813,1.813,0,0,0,.356-.237,2.075,2.075,0,0,0,.307-.32,1.741,1.741,0,0,0,.216-.359.879.879,0,0,0,.082-.356,1.044,1.044,0,0,0-.1-.45,1.48,1.48,0,0,0-.253-.377,1.633,1.633,0,0,0-.326-.274A.98.98,0,0,0-14.2-4.328ZM-18.238-.6A.777.777,0,0,1-18.177-.9a.809.809,0,0,1,.164-.25.71.71,0,0,1,.247-.164.812.812,0,0,1,.307-.058l.444,0,.45,0q.219,0,.417-.009t.35-.027a1.738,1.738,0,0,1-.271-.231,1.959,1.959,0,0,1-.268-.35,2.317,2.317,0,0,1-.213-.463,1.868,1.868,0,0,1-.094-.569,2.625,2.625,0,0,1,.164-1.053,3.561,3.561,0,0,1,.53-.9,2.7,2.7,0,0,1,.816-.691,1.826,1.826,0,0,1,.95-.228,2.018,2.018,0,0,1,.916.253,2.574,2.574,0,0,1,.733.606,2.872,2.872,0,0,1,.487.843,2.732,2.732,0,0,1,.177.965,2.49,2.49,0,0,1-.173.913,3.789,3.789,0,0,1-.447.828q.164.024.356.043t.39.033q.2.015.39.024t.35.009a.836.836,0,0,1,.31.058.7.7,0,0,1,.25.164.809.809,0,0,1,.164.25.777.777,0,0,1,.061.307.777.777,0,0,1-.061.307.772.772,0,0,1-.164.247.764.764,0,0,1-.25.164.8.8,0,0,1-.31.061h-.055q-.195,0-.42-.006t-.453-.021q-.228-.015-.444-.033t-.393-.049q-.353-.055-.7-.134a2.88,2.88,0,0,1-.712-.274,1.673,1.673,0,0,1-.545.231,6.876,6.876,0,0,1-.81.161q-.447.064-.94.094t-.931.03h-.049a.777.777,0,0,1-.307-.061.772.772,0,0,1-.247-.164.772.772,0,0,1-.164-.247A.777.777,0,0,1-18.238-.6Zm5.15-7.651-1.163,1.163-1.169-1.169,1.163-1.163ZM-12.174-.6A.745.745,0,0,1-12.11-.9a.787.787,0,0,1,.17-.247.809.809,0,0,1,.25-.164.762.762,0,0,1,.3-.061,2.809,2.809,0,0,0,.563-.049,1.786,1.786,0,0,0,.4-.125,1.054,1.054,0,0,0,.259-.164,1.306,1.306,0,0,0,.158-.167,3.789,3.789,0,0,0,.347-.633,3.773,3.773,0,0,0,.25-.81q.024-.134.049-.247t.052-.225q.027-.113.061-.234t.082-.274l1.315.42Q-7.95-3.5-8-3.217a3.261,3.261,0,0,0-.052.587,1.088,1.088,0,0,0,.067.377,3.31,3.31,0,0,0,.146.341q.1-.207.259-.472t.359-.554q.2-.289.457-.593a7.788,7.788,0,0,1,.545-.59A5.207,5.207,0,0,1-5.633-4.6,5.616,5.616,0,0,1-4.988-5a5.291,5.291,0,0,1,.673-.3,3.9,3.9,0,0,1,.67-.177l-.006.006a3.515,3.515,0,0,1,.688-.073,2.877,2.877,0,0,1,1.141.222,2.861,2.861,0,0,1,.934.648H-.895a2.519,2.519,0,0,1,.566.861,2.258,2.258,0,0,1,.152.965A3.059,3.059,0,0,1-.5-1.732a2.887,2.887,0,0,1-.724.91,3.977,3.977,0,0,1-.959.557,6.871,6.871,0,0,1-1.09.344A8.326,8.326,0,0,1-4.395.256Q-4.955.3-5.448.3q-.6,0-1.083-.04A4.762,4.762,0,0,1-7.417.113a3.41,3.41,0,0,1-.77-.32,4.211,4.211,0,0,1-.737-.542,2.49,2.49,0,0,1-1,.7,4.031,4.031,0,0,1-1.406.231h-.055a.762.762,0,0,1-.3-.061.809.809,0,0,1-.25-.164.787.787,0,0,1-.17-.247A.745.745,0,0,1-12.174-.6Zm7-2.465a5.922,5.922,0,0,0-.475.426q-.225.225-.414.45T-6.4-1.75q-.146.21-.237.374.408.018.916.037t1.044-.009a9.764,9.764,0,0,0,1.062-.113,4.329,4.329,0,0,0,.962-.265A2.327,2.327,0,0,0-1.908-2.2a1.518,1.518,0,0,0,.417-.749.91.91,0,0,0-.216-.523,1.275,1.275,0,0,0-.457-.332,1.913,1.913,0,0,0-.59-.149,2.4,2.4,0,0,0-.618.018,2.5,2.5,0,0,0-.472.125,4.426,4.426,0,0,0-.475.207q-.234.119-.453.259A4.652,4.652,0,0,0-5.174-3.062Z" transform="translate(294 2139)" fill="#fff"/><path d="M168.75,97.477,167.278,96,160,103.292h0l7.278,7.292,1.472-1.477-5.8-5.815Z" transform="translate(470.75 2239.583) rotate(180)" fill="#fff"/></g></svg>