<svg xmlns="http://www.w3.org/2000/svg" width="18.437" height="26.338" viewBox="0 0 18.437 26.338"><g transform="translate(-165.376 -891.662)"><path d="M14.218,2A9.212,9.212,0,0,0,5,11.218c0,6.914,9.218,17.12,9.218,17.12s9.218-10.206,9.218-17.12A9.212,9.212,0,0,0,14.218,2Zm0,12.511Z" transform="translate(160.376 889.662)" fill="#00a2ae"/><path d="M100.81,229.172l3.444,2.226v2.4H97.089v-2.357l3.721-2.266m.017-2.482a1.092,1.092,0,0,0-.574.162l-4.858,2.96a1.147,1.147,0,0,0-.546.979v4.144a1.131,1.131,0,0,0,1.119,1.142h9.4a1.13,1.13,0,0,0,1.119-1.14l0-4.164a1.144,1.144,0,0,0-.52-.963l-4.546-2.939a1.093,1.093,0,0,0-.6-.18Z" transform="translate(73.922 668.602)" fill="#fff"/></g></svg>