<svg xmlns="http://www.w3.org/2000/svg" width="21" height="21" viewBox="0 0 21 21"><g transform="translate(0 -0.012)"><g transform="translate(1.97 3.283)"><path d="M18.1,19.446H4.97A1.97,1.97,0,0,1,3,17.476V6.97A1.97,1.97,0,0,1,4.97,5H18.1a1.97,1.97,0,0,1,1.97,1.97V17.476A1.97,1.97,0,0,1,18.1,19.446ZM4.97,6.313a.657.657,0,0,0-.657.657V17.476a.657.657,0,0,0,.657.657H18.1a.657.657,0,0,0,.657-.657V6.97a.657.657,0,0,0-.657-.657Z" transform="translate(-3 -5)" fill="#fff"/><path d="M19.97,12.94a1.97,1.97,0,1,1,1.97-1.97A1.97,1.97,0,0,1,19.97,12.94Zm0-2.626a.657.657,0,1,0,.657.657A.657.657,0,0,0,19.97,10.313Z" transform="translate(-8.151 -6.374)" fill="#fff"/><path d="M22.927,23.772a.657.657,0,0,1-.545-.3l-2.85-4.268a.657.657,0,0,0-1.09,0l-.223.328a.657.657,0,0,1-1.09-.722l.217-.335a1.97,1.97,0,0,1,3.283,0l2.843,4.275a.657.657,0,0,1-.184.906A.617.617,0,0,1,22.927,23.772Z" transform="translate(-7.825 -9.326)" fill="#fff"/><path d="M5.657,22.7a.657.657,0,0,1-.552-1.011L9.2,15.37a1.97,1.97,0,0,1,1.642-.9h0a1.97,1.97,0,0,1,1.642.88l4.215,6.33a.657.657,0,0,1-1.09.722l-4.222-6.323a.657.657,0,0,0-.545-.3h0a.657.657,0,0,0-.545.3L6.209,22.4A.657.657,0,0,1,5.657,22.7Z" transform="translate(-3.687 -8.252)" fill="#fff"/></g><rect width="21" height="21" transform="translate(0 0.012)" fill="none"/></g></svg>