<svg xmlns="http://www.w3.org/2000/svg" width="19.032" height="19.114" viewBox="0 0 19.032 19.114"><g transform="translate(0.652 0.698)"><path d="M2.253.047a2.189,2.189,0,0,1,2.21,2.165A2.184,2.184,0,0,1,2.255,4.373,2.189,2.189,0,0,1,.045,2.209,2.184,2.184,0,0,1,2.253.047Z" transform="translate(-0.031 3.818) rotate(-59.751)" fill="none" stroke="#fff" stroke-linecap="round" stroke-width="1"/><path d="M2.253.047a2.189,2.189,0,0,1,2.21,2.165A2.184,2.184,0,0,1,2.255,4.373,2.189,2.189,0,0,1,.045,2.209,2.184,2.184,0,0,1,2.253.047Z" transform="translate(-0.031 15.568) rotate(-59.751)" fill="none" stroke="#fff" stroke-linecap="round" stroke-width="1"/><path d="M2.253.047a2.189,2.189,0,0,1,2.21,2.165A2.184,2.184,0,0,1,2.255,4.373,2.189,2.189,0,0,1,.045,2.209,2.184,2.184,0,0,1,2.253.047Z" transform="translate(11.671 9.693) rotate(-59.751)" fill="none" stroke="#fff" stroke-linecap="round" stroke-width="1"/><path d="M827.839-128.567l7.015,3.522" transform="translate(-822.457 132.729)" fill="none" stroke="#fff" stroke-linecap="round" stroke-linejoin="round" stroke-width="1"/><path d="M823.824-62.425l7.756-3.894" transform="translate(-818.809 76.172)" fill="none" stroke="#fff" stroke-linecap="round" stroke-linejoin="round" stroke-width="1"/></g></svg>