<svg xmlns="http://www.w3.org/2000/svg" width="17.067" height="17.069" viewBox="0 0 17.067 17.069">
  <path id="_1904663_bubble_chat_comment_communication_message_icon" data-name="1904663_bubble_chat_comment_communication_message_icon" d="M14.711,0H1.953A1.952,1.952,0,0,0,0,1.952v8.4A1.952,1.952,0,0,0,1.953,12.3H4.984a.13.13,0,0,1,.13.13v3.309a.911.911,0,0,0,1.556.644l4.046-4.044a.13.13,0,0,1,.092-.038h3.906a1.952,1.952,0,0,0,1.953-1.952v-8.4A1.952,1.952,0,0,0,14.711,0Zm1.172,10.353a1.171,1.171,0,0,1-1.172,1.171H10.806a.912.912,0,0,0-.644.26l-4.042,4.05a.13.13,0,0,1-.223-.092V12.435a.911.911,0,0,0-.911-.911H1.953A1.171,1.171,0,0,1,.781,10.353v-8.4A1.171,1.171,0,0,1,1.953.781H14.711a1.171,1.171,0,0,1,1.172,1.171Z" transform="translate(0.2 0.2)" fill="#fff" stroke="#fff" stroke-width="0.4"/>
</svg>
