<svg xmlns="http://www.w3.org/2000/svg" width="60.17" height="66.142" viewBox="0 0 60.17 66.142"><g transform="matrix(0.891, -0.454, 0.454, 0.891, 0, 18.216)"><g transform="translate(0 0)"><path d="M24.175,17.79A11.278,11.278,0,1,0,8.892,20.784V18.64a9.543,9.543,0,1,1,13.424-1.275,6.047,6.047,0,0,1,1.86.425Zm-3.137-1.6a7.808,7.808,0,1,0-12.146,0V11.263a6.073,6.073,0,0,1,12.146,0v4.923Zm4.336,35.867A13.275,13.275,0,0,0,38.389,39.041h0V28.633a2.6,2.6,0,1,0-5.205,0V29.5H31.448V25.171a2.6,2.6,0,1,0-5.205,0v2.592H24.508V23.435a2.6,2.6,0,1,0-5.205,0V29.5H17.567V11.287a2.6,2.6,0,1,0-5.205,0v19.6c-3.572-3.818-8.274-8.018-10.2-6.08-1.886,1.9,2.975,7.123,9.763,18.544,3.058,5.146,6.928,8.7,13.45,8.7ZM40.124,39.041A14.749,14.749,0,0,1,25.375,53.789c-5.4,0-11.1-2.52-15.025-9.668C4.688,33.8-2.554,27.039.895,23.591c2.467-2.467,6.34-.1,9.732,3.073h0V11.293a4.338,4.338,0,1,1,8.676,0v8.658a4.346,4.346,0,0,1,6.673,1.96,4.334,4.334,0,0,1,7.208,3.244v.023a4.343,4.343,0,0,1,6.941,3.476V39.041Z" fill="#fff" fill-rule="evenodd"/></g></g></svg>