<svg xmlns="http://www.w3.org/2000/svg" width="197.532" height="51.913" viewBox="0 0 197.532 51.913"><g transform="translate(-140.71 -22.395)"><path d="M29.457-6.174a4.04,4.04,0,0,0,1.228.446,11.1,11.1,0,0,0,1.272.163,3.315,3.315,0,0,1,1.326.272,3.585,3.585,0,0,1,1.1.728,3.507,3.507,0,0,1,.75,1.087,3.257,3.257,0,0,1,.283,1.348A3.257,3.257,0,0,1,35.13-.783a3.644,3.644,0,0,1-.75,1.1,3.342,3.342,0,0,1-1.1.728,3.434,3.434,0,0,1-1.326.261h-.2q-.565,0-1.446-.065a9.46,9.46,0,0,1-1.9-.359,10.487,10.487,0,0,1-2.087-.87,7.482,7.482,0,0,1-2-1.62A13.632,13.632,0,0,1,21.533.435a18.323,18.323,0,0,1-3.25,1.4,21.336,21.336,0,0,1-3.543.815,25.946,25.946,0,0,1-3.674.261,21.618,21.618,0,0,1-2.207-.12,24.93,24.93,0,0,1-2.6-.424L8.2-4.109q1,.13,1.9.207t1.663.076q.7,0,1.391-.065a8.735,8.735,0,0,0,1.37-.239,43.849,43.849,0,0,0-1.565-4.62q-.913-2.272-1.978-4.38t-2.2-4.022Q7.652-19.065,6.554-20.7T4.467-23.663Q3.478-25,2.717-25.957l4.891-5.065,5.957,9.587q1.043,1.891,1.989,3.848t1.761,3.859q.815,1.9,1.457,3.685t1.076,3.3A8.693,8.693,0,0,0,21.337-8.3,3.1,3.1,0,0,0,22-10.087q-.239-3.37-.587-6.576T20.685-22.8q-.38-2.935-.772-5.543L19.2-33.13l6.739-1.261q0,.043.076.75t.217,1.935q.141,1.228.315,2.891t.38,3.587q.207,1.924.413,4.022t.391,4.217q.185,2.12.348,4.174t.272,3.88a5.213,5.213,0,0,0,.4,1.75A2.27,2.27,0,0,0,29.457-6.174ZM28.592-2.13a3.257,3.257,0,0,1,.283-1.348,3.336,3.336,0,0,1,.772-1.087,3.832,3.832,0,0,1,1.13-.728,3.447,3.447,0,0,1,1.359-.272H51.875a3.315,3.315,0,0,1,1.326.272,3.585,3.585,0,0,1,1.1.728,3.507,3.507,0,0,1,.75,1.087,3.257,3.257,0,0,1,.283,1.348,3.257,3.257,0,0,1-.283,1.348,3.644,3.644,0,0,1-.75,1.1,3.342,3.342,0,0,1-1.1.728,3.434,3.434,0,0,1-1.326.261H32.114a3.515,3.515,0,0,1-1.337-.261,3.563,3.563,0,0,1-1.13-.728,3.46,3.46,0,0,1-.772-1.1A3.257,3.257,0,0,1,28.592-2.13Zm20.049,0A3.49,3.49,0,0,1,48.9-3.478a3.342,3.342,0,0,1,.728-1.1,3.342,3.342,0,0,1,1.1-.728,3.49,3.49,0,0,1,1.348-.261h1.652q1.565,0,3.011-.13a9.555,9.555,0,0,0,2.554-.554,4.488,4.488,0,0,0,1.793-1.2A3.151,3.151,0,0,0,61.815-9.5q.022-.478.011-.793a3.859,3.859,0,0,0-.12-.761q-.109-.446-.315-1.174t-.576-2.054l6.326-1.783A16.775,16.775,0,0,1,67.9-13.3a33.183,33.183,0,0,1,.522,3.761q.043.652.152,1.348a5.381,5.381,0,0,0,.359,1.283,2.632,2.632,0,0,0,.685.967,1.654,1.654,0,0,0,1.13.38A3.49,3.49,0,0,1,72.1-5.3a3.342,3.342,0,0,1,1.1.728,3.488,3.488,0,0,1,.739,1.1,3.368,3.368,0,0,1,.272,1.348,3.368,3.368,0,0,1-.272,1.348,3.4,3.4,0,0,1-.75,1.1,3.5,3.5,0,0,1-1.1.728,3.355,3.355,0,0,1-1.315.261A9.013,9.013,0,0,1,67.2.663,8.508,8.508,0,0,1,64.641-1,9.683,9.683,0,0,1,62.391.087a19.682,19.682,0,0,1-2.707.707,27.423,27.423,0,0,1-2.957.391q-1.522.12-3,.12H52.076a3.49,3.49,0,0,1-1.348-.261,3.342,3.342,0,0,1-1.1-.728,3.342,3.342,0,0,1-.728-1.1A3.49,3.49,0,0,1,48.641-2.13Zm20.8,11.239-4.174,4.2-4.13-4.13-4.087,4.087-4.217-4.2,4.174-4.2L61.141,9l4.087-4.087ZM67.886-2.13a3.331,3.331,0,0,1,.261-1.326,3.366,3.366,0,0,1,.717-1.065A3.484,3.484,0,0,1,69.94-5.25a3.886,3.886,0,0,1,1.337-.315A5.374,5.374,0,0,0,73.81-6.13a6.832,6.832,0,0,0,1.9-1.478A11.884,11.884,0,0,0,77.19-9.652q.652-1.13,1.239-2.261v.022q.565-1.174,1.207-2.326a16.659,16.659,0,0,1,1.4-2.13,8.726,8.726,0,0,1,2.63-2.12,6.7,6.7,0,0,1,3.109-.75,7.792,7.792,0,0,1,3.554.8,9.525,9.525,0,0,1,2.9,2.3,9.991,9.991,0,0,1,1.587,2.685,12.317,12.317,0,0,1,.8,3.207v-.043a12.832,12.832,0,0,1,.13,1.935,12.617,12.617,0,0,1-.207,2.293,12.8,12.8,0,0,1-.576,2.12A8.094,8.094,0,0,1,92.918-.859a7.292,7.292,0,0,1-2.9,1.685,5.922,5.922,0,0,1-1.033.207,10.181,10.181,0,0,1-1.076.054A9.77,9.77,0,0,1,85.832.848,14.528,14.528,0,0,1,83.668.2q-.435-.2-.978-.467t-1.141-.6q-.6-.326-1.185-.674t-1.087-.674A22.059,22.059,0,0,1,77.538-.761,10.771,10.771,0,0,1,75.712.348a9.858,9.858,0,0,1-2.043.707,10.567,10.567,0,0,1-2.37.25,3.292,3.292,0,0,1-1.337-.272A3.623,3.623,0,0,1,68.875.3a3.222,3.222,0,0,1-.728-1.087A3.49,3.49,0,0,1,67.886-2.13ZM83.3-7.848A11.971,11.971,0,0,0,84.9-7q.924.413,1.837.739t1.685.533a4.963,4.963,0,0,0,1.163.207,1.677,1.677,0,0,0,.185-.011q.1-.011.207-.033.261-.065.511-.663a3.746,3.746,0,0,0,.185-1.641A3.658,3.658,0,0,0,90.277-9.4a6.759,6.759,0,0,0-1.022-1.565,5.953,5.953,0,0,0-1.446-1.217,3.2,3.2,0,0,0-1.663-.489q-.3,0-.783.87T83.973-9.217v-.022Zm24.375-4.978a1.383,1.383,0,0,0-1.033.315,4.823,4.823,0,0,0-1.087,1.087,6.823,6.823,0,0,0-.848,1.511,4.2,4.2,0,0,0-.337,1.587,1.764,1.764,0,0,0,.413,1.2,3.158,3.158,0,0,0,1.054.783,5.982,5.982,0,0,0,1.413.457,14.484,14.484,0,0,0,1.489.217h-.022q.565.043,1.293.054t1.424.011q.217,0,.337.011t.207.011h.185a2.913,2.913,0,0,0,.293-.022,24.307,24.307,0,0,0-.772-2.576,12.7,12.7,0,0,0-1.033-2.207,6.646,6.646,0,0,0-1.326-1.62A3.482,3.482,0,0,0,107.674-12.826ZM97.022,9.935A37.48,37.48,0,0,0,102.609,8.4a25.959,25.959,0,0,0,4.424-2.065,15.533,15.533,0,0,0,3.152-2.424A7.983,7.983,0,0,0,111.957,1.3q-.935,0-1.978-.033T108.261,1.2a14.728,14.728,0,0,1-4.609-1.12,8.48,8.48,0,0,1-3.326-2.446,7.3,7.3,0,0,1-1.293-2.543,10.756,10.756,0,0,1-.38-2.891,13.046,13.046,0,0,1,.217-2.359,15.392,15.392,0,0,1,.609-2.3,15.1,15.1,0,0,1,.924-2.12,14.807,14.807,0,0,1,1.141-1.826A9.41,9.41,0,0,1,104.4-18.88a6.8,6.8,0,0,1,3.272-.837A8.847,8.847,0,0,1,114.3-16.5a15.313,15.313,0,0,1,1.87,2.63,19.056,19.056,0,0,1,1.4,3.1,20.918,20.918,0,0,1,.88,3.435,21.726,21.726,0,0,1,.3,3.641q0,.565-.033,1.13T118.652-1.5a17.887,17.887,0,0,1-1.141,4.772A18.228,18.228,0,0,1,115.25,7.38a19.548,19.548,0,0,1-3.207,3.413,23.884,23.884,0,0,1-3.967,2.7,27.2,27.2,0,0,1-4.533,1.946,31.1,31.1,0,0,1-4.913,1.174Zm34.9-24.565q.826,2.348,1.435,4.587.261.978.522,2.033t.467,2.109q.207,1.054.337,2.065a14.753,14.753,0,0,1,.13,1.88,14.487,14.487,0,0,1-.554,3.989A17.894,17.894,0,0,1,132.69,5.8a23.026,23.026,0,0,1-2.4,3.511,27.021,27.021,0,0,1-3.087,3.163,33.6,33.6,0,0,1-3.63,2.75,37.763,37.763,0,0,1-4,2.293l-3.957-5.5q1.565-.783,3.163-1.772a36.493,36.493,0,0,0,3.065-2.12,31.224,31.224,0,0,0,2.739-2.37A20.626,20.626,0,0,0,126.8,3.239a12.314,12.314,0,0,0,1.489-2.6,6.716,6.716,0,0,0,.543-2.576,8.694,8.694,0,0,0-.25-1.978,23.606,23.606,0,0,0-.674-2.293q-.424-1.228-1.011-2.609t-1.261-2.946Zm-3.739-13.217,4.826,4.826L128.179-18.2l-4.826-4.826Z" transform="translate(137.992 56.786)" fill="#fff"/><g transform="translate(285.466 17.214)"><path d="M119.035,236.761l13.974,9.034v9.725H103.935v-9.565l15.1-9.194m.07-10.071a4.432,4.432,0,0,0-2.329.659l-19.713,12.01a4.655,4.655,0,0,0-2.214,3.973v16.815a4.588,4.588,0,0,0,4.543,4.632h38.159a4.587,4.587,0,0,0,4.543-4.626l.006-16.9a4.643,4.643,0,0,0-2.111-3.909l-18.446-11.926a4.435,4.435,0,0,0-2.438-.729Z" transform="translate(-89.326 -216.588)" fill="#00d4c6"/></g></g></svg>